<?xml version="1.0" encoding="UTF-8" standalone="no"?>
<!DOCTYPE svg PUBLIC "-//W3C//DTD SVG 1.1//EN"
 "http://www.w3.org/Graphics/SVG/1.1/DTD/svg11.dtd">
<!-- Generated by graphviz version 2.40.1 (0)
 -->
<!-- Title: snakemake_dag Pages: 1 -->
<svg width="763pt" height="692pt"
 viewBox="0.00 0.00 762.50 692.00" xmlns="http://www.w3.org/2000/svg" xmlns:xlink="http://www.w3.org/1999/xlink">
<g id="graph0" class="graph" transform="scale(1 1) rotate(0) translate(4 688)">
<title>snakemake_dag</title>
<polygon fill="#ffffff" stroke="transparent" points="-4,4 -4,-688 758.5,-688 758.5,4 -4,4"/>
<!-- 0 -->
<g id="node1" class="node">
<title>0</title>
<path fill="none" stroke="#569ad8" stroke-width="2" d="M276,-36C276,-36 246,-36 246,-36 240,-36 234,-30 234,-24 234,-24 234,-12 234,-12 234,-6 240,0 246,0 246,0 276,0 276,0 282,0 288,-6 288,-12 288,-12 288,-24 288,-24 288,-30 282,-36 276,-36"/>
<text text-anchor="middle" x="261" y="-15.5" font-family="sans" font-size="10.00" fill="#000000">all</text>
</g>
<!-- 1 -->
<g id="node2" class="node">
<title>1</title>
<path fill="none" stroke="#56b9d8" stroke-width="2" d="M146,-468C146,-468 62,-468 62,-468 56,-468 50,-462 50,-456 50,-456 50,-444 50,-444 50,-438 56,-432 62,-432 62,-432 146,-432 146,-432 152,-432 158,-438 158,-444 158,-444 158,-456 158,-456 158,-462 152,-468 146,-468"/>
<text text-anchor="middle" x="104" y="-447.5" font-family="sans" font-size="10.00" fill="#000000">reads_quality_trim</text>
</g>
<!-- 1&#45;&gt;0 -->
<g id="edge6" class="edge">
<title>1&#45;&gt;0</title>
<path fill="none" stroke="#c0c0c0" stroke-width="2" d="M79.0894,-431.8707C48.3219,-407.171 0,-359.8129 0,-306 0,-306 0,-306 0,-162 0,-119.0818 2.6554,-100.2099 35,-72 62.9052,-47.6621 167.0017,-30.4614 223.6688,-22.6769"/>
<polygon fill="#c0c0c0" stroke="#c0c0c0" stroke-width="2" points="224.2239,-26.1338 233.6687,-21.3333 223.2917,-19.1961 224.2239,-26.1338"/>
</g>
<!-- 2 -->
<g id="node3" class="node">
<title>2</title>
<path fill="none" stroke="#d6d856" stroke-width="2" d="M135,-540C135,-540 73,-540 73,-540 67,-540 61,-534 61,-528 61,-528 61,-516 61,-516 61,-510 67,-504 73,-504 73,-504 135,-504 135,-504 141,-504 147,-510 147,-516 147,-516 147,-528 147,-528 147,-534 141,-540 135,-540"/>
<text text-anchor="middle" x="104" y="-519.5" font-family="sans" font-size="10.00" fill="#000000">initial_multiqc</text>
</g>
<!-- 2&#45;&gt;1 -->
<g id="edge8" class="edge">
<title>2&#45;&gt;1</title>
<path fill="none" stroke="#c0c0c0" stroke-width="2" d="M104,-503.8314C104,-496.131 104,-486.9743 104,-478.4166"/>
<polygon fill="#c0c0c0" stroke="#c0c0c0" stroke-width="2" points="107.5001,-478.4132 104,-468.4133 100.5001,-478.4133 107.5001,-478.4132"/>
</g>
<!-- 3 -->
<g id="node4" class="node">
<title>3</title>
<path fill="none" stroke="#80d856" stroke-width="2" d="M132,-612C132,-612 76,-612 76,-612 70,-612 64,-606 64,-600 64,-600 64,-588 64,-588 64,-582 70,-576 76,-576 76,-576 132,-576 132,-576 138,-576 144,-582 144,-588 144,-588 144,-600 144,-600 144,-606 138,-612 132,-612"/>
<text text-anchor="middle" x="104" y="-591.5" font-family="sans" font-size="10.00" fill="#000000">initial_fastqc</text>
</g>
<!-- 3&#45;&gt;2 -->
<g id="edge9" class="edge">
<title>3&#45;&gt;2</title>
<path fill="none" stroke="#c0c0c0" stroke-width="2" d="M104,-575.8314C104,-568.131 104,-558.9743 104,-550.4166"/>
<polygon fill="#c0c0c0" stroke="#c0c0c0" stroke-width="2" points="107.5001,-550.4132 104,-540.4133 100.5001,-550.4133 107.5001,-550.4132"/>
</g>
<!-- 4 -->
<g id="node5" class="node">
<title>4</title>
<path fill="none" stroke="#568ad8" stroke-width="2" d="M335.5,-540C335.5,-540 258.5,-540 258.5,-540 252.5,-540 246.5,-534 246.5,-528 246.5,-528 246.5,-516 246.5,-516 246.5,-510 252.5,-504 258.5,-504 258.5,-504 335.5,-504 335.5,-504 341.5,-504 347.5,-510 347.5,-516 347.5,-516 347.5,-528 347.5,-528 347.5,-534 341.5,-540 335.5,-540"/>
<text text-anchor="middle" x="297" y="-519.5" font-family="sans" font-size="10.00" fill="#000000">trimmed_multiqc</text>
</g>
<!-- 4&#45;&gt;1 -->
<g id="edge7" class="edge">
<title>4&#45;&gt;1</title>
<path fill="none" stroke="#c0c0c0" stroke-width="2" d="M248.298,-503.8314C222.0264,-494.0306 189.4317,-481.8709 161.8716,-471.5894"/>
<polygon fill="#c0c0c0" stroke="#c0c0c0" stroke-width="2" points="162.9445,-468.2541 152.3518,-468.038 160.4977,-474.8126 162.9445,-468.2541"/>
</g>
<!-- 8 -->
<g id="node9" class="node">
<title>8</title>
<path fill="none" stroke="#d8ac56" stroke-width="2" d="M313.5,-468C313.5,-468 280.5,-468 280.5,-468 274.5,-468 268.5,-462 268.5,-456 268.5,-456 268.5,-444 268.5,-444 268.5,-438 274.5,-432 280.5,-432 280.5,-432 313.5,-432 313.5,-432 319.5,-432 325.5,-438 325.5,-444 325.5,-444 325.5,-456 325.5,-456 325.5,-462 319.5,-468 313.5,-468"/>
<text text-anchor="middle" x="297" y="-447.5" font-family="sans" font-size="10.00" fill="#000000">megahit</text>
</g>
<!-- 4&#45;&gt;8 -->
<g id="edge14" class="edge">
<title>4&#45;&gt;8</title>
<path fill="none" stroke="#c0c0c0" stroke-width="2" d="M297,-503.8314C297,-496.131 297,-486.9743 297,-478.4166"/>
<polygon fill="#c0c0c0" stroke="#c0c0c0" stroke-width="2" points="300.5001,-478.4132 297,-468.4133 293.5001,-478.4133 300.5001,-478.4132"/>
</g>
<!-- 5 -->
<g id="node6" class="node">
<title>5</title>
<path fill="none" stroke="#9fd856" stroke-width="2" d="M337,-612C337,-612 267,-612 267,-612 261,-612 255,-606 255,-600 255,-600 255,-588 255,-588 255,-582 261,-576 267,-576 267,-576 337,-576 337,-576 343,-576 349,-582 349,-588 349,-588 349,-600 349,-600 349,-606 343,-612 337,-612"/>
<text text-anchor="middle" x="302" y="-591.5" font-family="sans" font-size="10.00" fill="#000000">trimmed_fastqc</text>
</g>
<!-- 5&#45;&gt;4 -->
<g id="edge10" class="edge">
<title>5&#45;&gt;4</title>
<path fill="none" stroke="#c0c0c0" stroke-width="2" d="M300.7383,-575.8314C300.2035,-568.131 299.5677,-558.9743 298.9734,-550.4166"/>
<polygon fill="#c0c0c0" stroke="#c0c0c0" stroke-width="2" points="302.4632,-550.1467 298.2787,-540.4133 295.48,-550.6317 302.4632,-550.1467"/>
</g>
<!-- 6 -->
<g id="node7" class="node">
<title>6</title>
<path fill="none" stroke="#afd856" stroke-width="2" d="M427,-684C427,-684 371,-684 371,-684 365,-684 359,-678 359,-672 359,-672 359,-660 359,-660 359,-654 365,-648 371,-648 371,-648 427,-648 427,-648 433,-648 439,-654 439,-660 439,-660 439,-672 439,-672 439,-678 433,-684 427,-684"/>
<text text-anchor="middle" x="399" y="-663.5" font-family="sans" font-size="10.00" fill="#000000">trimmomatic</text>
</g>
<!-- 6&#45;&gt;5 -->
<g id="edge11" class="edge">
<title>6&#45;&gt;5</title>
<path fill="none" stroke="#c0c0c0" stroke-width="2" d="M374.5228,-647.8314C362.4605,-638.8779 347.746,-627.9558 334.7314,-618.2955"/>
<polygon fill="#c0c0c0" stroke="#c0c0c0" stroke-width="2" points="336.5852,-615.3127 326.4694,-612.1628 332.413,-620.9335 336.5852,-615.3127"/>
</g>
<!-- 6&#45;&gt;8 -->
<g id="edge13" class="edge">
<title>6&#45;&gt;8</title>
<path fill="none" stroke="#c0c0c0" stroke-width="2" d="M397.6863,-647.6638C394.7151,-616.1698 385.3563,-550.6863 357,-504 350.3501,-493.0515 340.7996,-483.037 331.2677,-474.6854"/>
<polygon fill="#c0c0c0" stroke="#c0c0c0" stroke-width="2" points="333.2542,-471.785 323.3294,-468.0772 328.7757,-477.165 333.2542,-471.785"/>
</g>
<!-- 18 -->
<g id="node19" class="node">
<title>18</title>
<path fill="none" stroke="#56d8b1" stroke-width="2" d="M456.5,-396C456.5,-396 391.5,-396 391.5,-396 385.5,-396 379.5,-390 379.5,-384 379.5,-384 379.5,-372 379.5,-372 379.5,-366 385.5,-360 391.5,-360 391.5,-360 456.5,-360 456.5,-360 462.5,-360 468.5,-366 468.5,-372 468.5,-372 468.5,-384 468.5,-384 468.5,-390 462.5,-396 456.5,-396"/>
<text text-anchor="middle" x="424" y="-375.5" font-family="sans" font-size="10.00" fill="#000000">pro_mapReads</text>
</g>
<!-- 6&#45;&gt;18 -->
<g id="edge33" class="edge">
<title>6&#45;&gt;18</title>
<path fill="none" stroke="#c0c0c0" stroke-width="2" d="M400.5639,-647.9843C404.7905,-599.2939 416.4656,-464.7961 421.5645,-406.0573"/>
<polygon fill="#c0c0c0" stroke="#c0c0c0" stroke-width="2" points="425.0587,-406.2741 422.4367,-396.0089 418.0849,-405.6687 425.0587,-406.2741"/>
</g>
<!-- 29 -->
<g id="node30" class="node">
<title>29</title>
<path fill="none" stroke="#70d856" stroke-width="2" d="M562,-612C562,-612 512,-612 512,-612 506,-612 500,-606 500,-600 500,-600 500,-588 500,-588 500,-582 506,-576 512,-576 512,-576 562,-576 562,-576 568,-576 574,-582 574,-588 574,-588 574,-600 574,-600 574,-606 568,-612 562,-612"/>
<text text-anchor="middle" x="537" y="-591.5" font-family="sans" font-size="10.00" fill="#000000">extract_bac</text>
</g>
<!-- 6&#45;&gt;29 -->
<g id="edge44" class="edge">
<title>6&#45;&gt;29</title>
<path fill="none" stroke="#c0c0c0" stroke-width="2" d="M433.8232,-647.8314C451.8011,-638.4516 473.9203,-626.9112 493.0616,-616.9244"/>
<polygon fill="#c0c0c0" stroke="#c0c0c0" stroke-width="2" points="494.9411,-619.8916 502.1879,-612.1628 491.7031,-613.6855 494.9411,-619.8916"/>
</g>
<!-- 7 -->
<g id="node8" class="node">
<title>7</title>
<path fill="none" stroke="#56d85b" stroke-width="2" d="M166,-108C166,-108 56,-108 56,-108 50,-108 44,-102 44,-96 44,-96 44,-84 44,-84 44,-78 50,-72 56,-72 56,-72 166,-72 166,-72 172,-72 178,-78 178,-84 178,-84 178,-96 178,-96 178,-102 172,-108 166,-108"/>
<text text-anchor="middle" x="111" y="-87.5" font-family="sans" font-size="10.00" fill="#000000">metagenome_assembly</text>
</g>
<!-- 7&#45;&gt;0 -->
<g id="edge4" class="edge">
<title>7&#45;&gt;0</title>
<path fill="none" stroke="#c0c0c0" stroke-width="2" d="M148.8513,-71.8314C172.0404,-60.7006 201.5683,-46.5272 224.504,-35.5181"/>
<polygon fill="#c0c0c0" stroke="#c0c0c0" stroke-width="2" points="226.0743,-38.6467 233.5749,-31.164 223.0451,-32.3361 226.0743,-38.6467"/>
</g>
<!-- 8&#45;&gt;7 -->
<g id="edge12" class="edge">
<title>8&#45;&gt;7</title>
<path fill="none" stroke="#c0c0c0" stroke-width="2" d="M268.3331,-445.1999C218.8177,-436.4662 119.8879,-416.9363 92,-396 54.695,-367.9939 38,-352.6476 38,-306 38,-306 38,-306 38,-234 38,-188.7858 66.9854,-143.3764 88.4272,-115.9705"/>
<polygon fill="#c0c0c0" stroke="#c0c0c0" stroke-width="2" points="91.2496,-118.046 94.7989,-108.0633 85.7991,-113.6538 91.2496,-118.046"/>
</g>
<!-- 11 -->
<g id="node12" class="node">
<title>11</title>
<path fill="none" stroke="#c6d856" stroke-width="2" d="M166.5,-396C166.5,-396 113.5,-396 113.5,-396 107.5,-396 101.5,-390 101.5,-384 101.5,-384 101.5,-372 101.5,-372 101.5,-366 107.5,-360 113.5,-360 113.5,-360 166.5,-360 166.5,-360 172.5,-360 178.5,-366 178.5,-372 178.5,-372 178.5,-384 178.5,-384 178.5,-390 172.5,-396 166.5,-396"/>
<text text-anchor="middle" x="140" y="-375.5" font-family="sans" font-size="10.00" fill="#000000">euk_barrnap</text>
</g>
<!-- 8&#45;&gt;11 -->
<g id="edge22" class="edge">
<title>8&#45;&gt;11</title>
<path fill="none" stroke="#c0c0c0" stroke-width="2" d="M268.2038,-436.7941C245.8126,-426.5255 214.2561,-412.0537 188.0545,-400.0377"/>
<polygon fill="#c0c0c0" stroke="#c0c0c0" stroke-width="2" points="189.2193,-396.7214 178.6705,-395.7342 186.3012,-403.0843 189.2193,-396.7214"/>
</g>
<!-- 12 -->
<g id="node13" class="node">
<title>12</title>
<path fill="none" stroke="#8fd856" stroke-width="2" d="M239,-396C239,-396 209,-396 209,-396 203,-396 197,-390 197,-384 197,-384 197,-372 197,-372 197,-366 203,-360 209,-360 209,-360 239,-360 239,-360 245,-360 251,-366 251,-372 251,-372 251,-384 251,-384 251,-390 245,-396 239,-396"/>
<text text-anchor="middle" x="224" y="-375.5" font-family="sans" font-size="10.00" fill="#000000">mitoz</text>
</g>
<!-- 8&#45;&gt;12 -->
<g id="edge23" class="edge">
<title>8&#45;&gt;12</title>
<path fill="none" stroke="#c0c0c0" stroke-width="2" d="M278.579,-431.8314C269.8471,-423.219 259.2683,-412.7851 249.7577,-403.4048"/>
<polygon fill="#c0c0c0" stroke="#c0c0c0" stroke-width="2" points="251.9925,-400.6931 242.4151,-396.1628 247.077,-405.6769 251.9925,-400.6931"/>
</g>
<!-- 13 -->
<g id="node14" class="node">
<title>13</title>
<path fill="none" stroke="#56d8c1" stroke-width="2" d="M311,-396C311,-396 281,-396 281,-396 275,-396 269,-390 269,-384 269,-384 269,-372 269,-372 269,-366 275,-360 281,-360 281,-360 311,-360 311,-360 317,-360 323,-366 323,-372 323,-372 323,-384 323,-384 323,-390 317,-396 311,-396"/>
<text text-anchor="middle" x="296" y="-375.5" font-family="sans" font-size="10.00" fill="#000000">busco</text>
</g>
<!-- 8&#45;&gt;13 -->
<g id="edge24" class="edge">
<title>8&#45;&gt;13</title>
<path fill="none" stroke="#c0c0c0" stroke-width="2" d="M296.7477,-431.8314C296.6407,-424.131 296.5135,-414.9743 296.3947,-406.4166"/>
<polygon fill="#c0c0c0" stroke="#c0c0c0" stroke-width="2" points="299.8944,-406.3637 296.2557,-396.4133 292.8951,-406.4609 299.8944,-406.3637"/>
</g>
<!-- 17 -->
<g id="node18" class="node">
<title>17</title>
<path fill="none" stroke="#d8bc56" stroke-width="2" d="M430,-324C430,-324 374,-324 374,-324 368,-324 362,-318 362,-312 362,-312 362,-300 362,-300 362,-294 368,-288 374,-288 374,-288 430,-288 430,-288 436,-288 442,-294 442,-300 442,-300 442,-312 442,-312 442,-318 436,-324 430,-324"/>
<text text-anchor="middle" x="402" y="-303.5" font-family="sans" font-size="10.00" fill="#000000">pro_comebin</text>
</g>
<!-- 8&#45;&gt;17 -->
<g id="edge30" class="edge">
<title>8&#45;&gt;17</title>
<path fill="none" stroke="#c0c0c0" stroke-width="2" d="M310.2983,-431.7623C328.6021,-406.66 361.6758,-361.3017 382.7011,-332.4671"/>
<polygon fill="#c0c0c0" stroke="#c0c0c0" stroke-width="2" points="385.7459,-334.2318 388.8097,-324.0896 380.0899,-330.1076 385.7459,-334.2318"/>
</g>
<!-- 8&#45;&gt;18 -->
<g id="edge32" class="edge">
<title>8&#45;&gt;18</title>
<path fill="none" stroke="#c0c0c0" stroke-width="2" d="M325.5013,-433.8418C342.4703,-424.2216 364.2885,-411.8522 383.0757,-401.2012"/>
<polygon fill="#c0c0c0" stroke="#c0c0c0" stroke-width="2" points="385.0474,-404.1068 392.0204,-396.1301 381.595,-398.0173 385.0474,-404.1068"/>
</g>
<!-- 26 -->
<g id="node27" class="node">
<title>26</title>
<path fill="none" stroke="#d8cb56" stroke-width="2" d="M601.5,-396C601.5,-396 550.5,-396 550.5,-396 544.5,-396 538.5,-390 538.5,-384 538.5,-384 538.5,-372 538.5,-372 538.5,-366 544.5,-360 550.5,-360 550.5,-360 601.5,-360 601.5,-360 607.5,-360 613.5,-366 613.5,-372 613.5,-372 613.5,-384 613.5,-384 613.5,-390 607.5,-396 601.5,-396"/>
<text text-anchor="middle" x="576" y="-375.5" font-family="sans" font-size="10.00" fill="#000000">pro_barrnap</text>
</g>
<!-- 8&#45;&gt;26 -->
<g id="edge41" class="edge">
<title>8&#45;&gt;26</title>
<path fill="none" stroke="#c0c0c0" stroke-width="2" d="M325.5467,-442.6331C373.4665,-430.2667 470.5422,-405.2149 528.7585,-390.1914"/>
<polygon fill="#c0c0c0" stroke="#c0c0c0" stroke-width="2" points="529.6467,-393.5769 538.4549,-387.6891 527.8975,-386.7989 529.6467,-393.5769"/>
</g>
<!-- 9 -->
<g id="node10" class="node">
<title>9</title>
<path fill="none" stroke="#56d892" stroke-width="2" d="M266,-252C266,-252 178,-252 178,-252 172,-252 166,-246 166,-240 166,-240 166,-228 166,-228 166,-222 172,-216 178,-216 178,-216 266,-216 266,-216 272,-216 278,-222 278,-228 278,-228 278,-240 278,-240 278,-246 272,-252 266,-252"/>
<text text-anchor="middle" x="222" y="-231.5" font-family="sans" font-size="10.00" fill="#000000">host_genome_skim</text>
</g>
<!-- 9&#45;&gt;0 -->
<g id="edge2" class="edge">
<title>9&#45;&gt;0</title>
<path fill="none" stroke="#c0c0c0" stroke-width="2" d="M222.7256,-215.7743C224.2427,-185.5266 228.6986,-123.2144 241,-72 243.1145,-63.1965 246.2359,-53.8638 249.3872,-45.478"/>
<polygon fill="#c0c0c0" stroke="#c0c0c0" stroke-width="2" points="252.6498,-46.7448 253.0416,-36.1572 246.1328,-44.1896 252.6498,-46.7448"/>
</g>
<!-- 10 -->
<g id="node11" class="node">
<title>10</title>
<path fill="none" stroke="#61d856" stroke-width="2" d="M255.5,-324C255.5,-324 116.5,-324 116.5,-324 110.5,-324 104.5,-318 104.5,-312 104.5,-312 104.5,-300 104.5,-300 104.5,-294 110.5,-288 116.5,-288 116.5,-288 255.5,-288 255.5,-288 261.5,-288 267.5,-294 267.5,-300 267.5,-300 267.5,-312 267.5,-312 267.5,-318 261.5,-324 255.5,-324"/>
<text text-anchor="middle" x="186" y="-303.5" font-family="sans" font-size="10.00" fill="#000000">all_genome_skims_processed</text>
</g>
<!-- 10&#45;&gt;9 -->
<g id="edge17" class="edge">
<title>10&#45;&gt;9</title>
<path fill="none" stroke="#c0c0c0" stroke-width="2" d="M195.0843,-287.8314C199.0615,-279.8771 203.8155,-270.369 208.2139,-261.5723"/>
<polygon fill="#c0c0c0" stroke="#c0c0c0" stroke-width="2" points="211.4517,-262.9228 212.7934,-252.4133 205.1907,-259.7923 211.4517,-262.9228"/>
</g>
<!-- 11&#45;&gt;9 -->
<g id="edge15" class="edge">
<title>11&#45;&gt;9</title>
<path fill="none" stroke="#c0c0c0" stroke-width="2" d="M119.5981,-359.7081C101.2825,-341.0075 79.4836,-311.4582 95,-288 108.9406,-266.9241 132.9506,-254.0486 156.367,-246.1938"/>
<polygon fill="#c0c0c0" stroke="#c0c0c0" stroke-width="2" points="157.4615,-249.519 165.984,-243.2248 155.3965,-242.8305 157.4615,-249.519"/>
</g>
<!-- 11&#45;&gt;10 -->
<g id="edge19" class="edge">
<title>11&#45;&gt;10</title>
<path fill="none" stroke="#c0c0c0" stroke-width="2" d="M151.6077,-359.8314C156.7978,-351.7079 163.0232,-341.9637 168.7425,-333.0118"/>
<polygon fill="#c0c0c0" stroke="#c0c0c0" stroke-width="2" points="171.8015,-334.7246 174.236,-324.4133 165.9026,-330.9559 171.8015,-334.7246"/>
</g>
<!-- 12&#45;&gt;9 -->
<g id="edge16" class="edge">
<title>12&#45;&gt;9</title>
<path fill="none" stroke="#c0c0c0" stroke-width="2" d="M248.5801,-359.7772C259.1482,-350.4022 270.3543,-338.0021 276,-324 281.9832,-309.1608 282.1229,-302.7821 276,-288 271.4479,-277.0103 263.454,-267.0911 254.9898,-258.8418"/>
<polygon fill="#c0c0c0" stroke="#c0c0c0" stroke-width="2" points="257.2589,-256.1745 247.5052,-252.0373 252.5501,-261.354 257.2589,-256.1745"/>
</g>
<!-- 12&#45;&gt;10 -->
<g id="edge20" class="edge">
<title>12&#45;&gt;10</title>
<path fill="none" stroke="#c0c0c0" stroke-width="2" d="M214.411,-359.8314C210.1683,-351.7925 205.0879,-342.1666 200.404,-333.2918"/>
<polygon fill="#c0c0c0" stroke="#c0c0c0" stroke-width="2" points="203.4811,-331.6235 195.7181,-324.4133 197.2904,-334.8908 203.4811,-331.6235"/>
</g>
<!-- 13&#45;&gt;9 -->
<g id="edge18" class="edge">
<title>13&#45;&gt;9</title>
<path fill="none" stroke="#c0c0c0" stroke-width="2" d="M299.7315,-359.9603C302.7158,-340.9356 304.6984,-310.639 293,-288 286.8249,-276.0497 276.6666,-265.9922 265.9389,-257.9189"/>
<polygon fill="#c0c0c0" stroke="#c0c0c0" stroke-width="2" points="267.8792,-255.0048 257.6809,-252.1334 263.8627,-260.7378 267.8792,-255.0048"/>
</g>
<!-- 13&#45;&gt;10 -->
<g id="edge21" class="edge">
<title>13&#45;&gt;10</title>
<path fill="none" stroke="#c0c0c0" stroke-width="2" d="M268.809,-360.2022C254.7685,-351.0121 237.447,-339.6744 222.2813,-329.7478"/>
<polygon fill="#c0c0c0" stroke="#c0c0c0" stroke-width="2" points="223.9261,-326.6413 213.6423,-324.0931 220.0925,-332.4982 223.9261,-326.6413"/>
</g>
<!-- 14 -->
<g id="node15" class="node">
<title>14</title>
<path fill="none" stroke="#567bd8" stroke-width="2" d="M339.5,-108C339.5,-108 262.5,-108 262.5,-108 256.5,-108 250.5,-102 250.5,-96 250.5,-96 250.5,-84 250.5,-84 250.5,-78 256.5,-72 262.5,-72 262.5,-72 339.5,-72 339.5,-72 345.5,-72 351.5,-78 351.5,-84 351.5,-84 351.5,-96 351.5,-96 351.5,-102 345.5,-108 339.5,-108"/>
<text text-anchor="middle" x="301" y="-87.5" font-family="sans" font-size="10.00" fill="#000000">microbiome_bins</text>
</g>
<!-- 14&#45;&gt;0 -->
<g id="edge3" class="edge">
<title>14&#45;&gt;0</title>
<path fill="none" stroke="#c0c0c0" stroke-width="2" d="M290.9063,-71.8314C286.4403,-63.7925 281.0925,-54.1666 276.1621,-45.2918"/>
<polygon fill="#c0c0c0" stroke="#c0c0c0" stroke-width="2" points="279.1456,-43.4551 271.2296,-36.4133 273.0265,-46.8546 279.1456,-43.4551"/>
</g>
<!-- 15 -->
<g id="node16" class="node">
<title>15</title>
<path fill="none" stroke="#d85656" stroke-width="2" d="M316.5,-180C316.5,-180 285.5,-180 285.5,-180 279.5,-180 273.5,-174 273.5,-168 273.5,-168 273.5,-156 273.5,-156 273.5,-150 279.5,-144 285.5,-144 285.5,-144 316.5,-144 316.5,-144 322.5,-144 328.5,-150 328.5,-156 328.5,-156 328.5,-168 328.5,-168 328.5,-174 322.5,-180 316.5,-180"/>
<text text-anchor="middle" x="301" y="-159.5" font-family="sans" font-size="10.00" fill="#000000">checkm</text>
</g>
<!-- 15&#45;&gt;14 -->
<g id="edge25" class="edge">
<title>15&#45;&gt;14</title>
<path fill="none" stroke="#c0c0c0" stroke-width="2" d="M301,-143.8314C301,-136.131 301,-126.9743 301,-118.4166"/>
<polygon fill="#c0c0c0" stroke="#c0c0c0" stroke-width="2" points="304.5001,-118.4132 301,-108.4133 297.5001,-118.4133 304.5001,-118.4132"/>
</g>
<!-- 16 -->
<g id="node17" class="node">
<title>16</title>
<path fill="none" stroke="#5663d8" stroke-width="2" d="M412,-252C412,-252 362,-252 362,-252 356,-252 350,-246 350,-240 350,-240 350,-228 350,-228 350,-222 356,-216 362,-216 362,-216 412,-216 412,-216 418,-216 424,-222 424,-228 424,-228 424,-240 424,-240 424,-246 418,-252 412,-252"/>
<text text-anchor="middle" x="387" y="-231.5" font-family="sans" font-size="10.00" fill="#000000">pro_dastool</text>
</g>
<!-- 16&#45;&gt;14 -->
<g id="edge26" class="edge">
<title>16&#45;&gt;14</title>
<path fill="none" stroke="#c0c0c0" stroke-width="2" d="M377.4608,-215.8247C367.6977,-197.4697 351.8886,-168.4179 337,-144 331.5146,-135.0037 325.2329,-125.3742 319.4687,-116.7746"/>
<polygon fill="#c0c0c0" stroke="#c0c0c0" stroke-width="2" points="322.2071,-114.5761 313.7041,-108.2555 316.4096,-118.4991 322.2071,-114.5761"/>
</g>
<!-- 16&#45;&gt;15 -->
<g id="edge27" class="edge">
<title>16&#45;&gt;15</title>
<path fill="none" stroke="#c0c0c0" stroke-width="2" d="M365.2986,-215.8314C354.8079,-207.0485 342.0545,-196.3712 330.6806,-186.8489"/>
<polygon fill="#c0c0c0" stroke="#c0c0c0" stroke-width="2" points="332.6089,-183.8986 322.6945,-180.1628 328.1153,-189.2659 332.6089,-183.8986"/>
</g>
<!-- 17&#45;&gt;16 -->
<g id="edge29" class="edge">
<title>17&#45;&gt;16</title>
<path fill="none" stroke="#c0c0c0" stroke-width="2" d="M398.2149,-287.8314C396.6106,-280.131 394.703,-270.9743 392.9201,-262.4166"/>
<polygon fill="#c0c0c0" stroke="#c0c0c0" stroke-width="2" points="396.3021,-261.4892 390.8361,-252.4133 389.4493,-262.9169 396.3021,-261.4892"/>
</g>
<!-- 18&#45;&gt;17 -->
<g id="edge31" class="edge">
<title>18&#45;&gt;17</title>
<path fill="none" stroke="#c0c0c0" stroke-width="2" d="M418.4485,-359.8314C416.0697,-352.0463 413.2362,-342.7729 410.5967,-334.1347"/>
<polygon fill="#c0c0c0" stroke="#c0c0c0" stroke-width="2" points="413.8958,-332.954 407.6263,-324.4133 407.2013,-334.9996 413.8958,-332.954"/>
</g>
<!-- 19 -->
<g id="node20" class="node">
<title>19</title>
<path fill="none" stroke="#56c9d8" stroke-width="2" d="M527.5,-324C527.5,-324 472.5,-324 472.5,-324 466.5,-324 460.5,-318 460.5,-312 460.5,-312 460.5,-300 460.5,-300 460.5,-294 466.5,-288 472.5,-288 472.5,-288 527.5,-288 527.5,-288 533.5,-288 539.5,-294 539.5,-300 539.5,-300 539.5,-312 539.5,-312 539.5,-318 533.5,-324 527.5,-324"/>
<text text-anchor="middle" x="500" y="-303.5" font-family="sans" font-size="10.00" fill="#000000">pro_metabat</text>
</g>
<!-- 19&#45;&gt;16 -->
<g id="edge28" class="edge">
<title>19&#45;&gt;16</title>
<path fill="none" stroke="#c0c0c0" stroke-width="2" d="M471.4853,-287.8314C457.1658,-278.7074 439.6376,-267.539 424.2662,-257.7449"/>
<polygon fill="#c0c0c0" stroke="#c0c0c0" stroke-width="2" points="425.8199,-254.5847 415.5055,-252.1628 422.0583,-260.4882 425.8199,-254.5847"/>
</g>
<!-- 20 -->
<g id="node21" class="node">
<title>20</title>
<path fill="none" stroke="#d87556" stroke-width="2" d="M498,-108C498,-108 382,-108 382,-108 376,-108 370,-102 370,-96 370,-96 370,-84 370,-84 370,-78 376,-72 382,-72 382,-72 498,-72 498,-72 504,-72 510,-78 510,-84 510,-84 510,-96 510,-96 510,-102 504,-108 498,-108"/>
<text text-anchor="middle" x="440" y="-87.5" font-family="sans" font-size="10.00" fill="#000000">microbiome_bins_quality</text>
</g>
<!-- 20&#45;&gt;0 -->
<g id="edge1" class="edge">
<title>20&#45;&gt;0</title>
<path fill="none" stroke="#c0c0c0" stroke-width="2" d="M394.8307,-71.8314C364.7209,-59.7201 325.6556,-44.0067 297.5128,-32.6867"/>
<polygon fill="#c0c0c0" stroke="#c0c0c0" stroke-width="2" points="298.6303,-29.3637 288.0465,-28.879 296.018,-35.858 298.6303,-29.3637"/>
</g>
<!-- 21 -->
<g id="node22" class="node">
<title>21</title>
<path fill="none" stroke="#56d8d0" stroke-width="2" d="M439,-180C439,-180 397,-180 397,-180 391,-180 385,-174 385,-168 385,-168 385,-156 385,-156 385,-150 391,-144 397,-144 397,-144 439,-144 439,-144 445,-144 451,-150 451,-156 451,-156 451,-168 451,-168 451,-174 445,-180 439,-180"/>
<text text-anchor="middle" x="418" y="-159.5" font-family="sans" font-size="10.00" fill="#000000">checkm_2</text>
</g>
<!-- 21&#45;&gt;20 -->
<g id="edge35" class="edge">
<title>21&#45;&gt;20</title>
<path fill="none" stroke="#c0c0c0" stroke-width="2" d="M423.5515,-143.8314C425.9303,-136.0463 428.7638,-126.7729 431.4033,-118.1347"/>
<polygon fill="#c0c0c0" stroke="#c0c0c0" stroke-width="2" points="434.7987,-118.9996 434.3737,-108.4133 428.1042,-116.954 434.7987,-118.9996"/>
</g>
<!-- 22 -->
<g id="node23" class="node">
<title>22</title>
<path fill="none" stroke="#d86656" stroke-width="2" d="M526.5,-180C526.5,-180 481.5,-180 481.5,-180 475.5,-180 469.5,-174 469.5,-168 469.5,-168 469.5,-156 469.5,-156 469.5,-150 475.5,-144 481.5,-144 481.5,-144 526.5,-144 526.5,-144 532.5,-144 538.5,-150 538.5,-156 538.5,-156 538.5,-168 538.5,-168 538.5,-174 532.5,-180 526.5,-180"/>
<text text-anchor="middle" x="504" y="-159.5" font-family="sans" font-size="10.00" fill="#000000">pro_gtdbtk</text>
</g>
<!-- 22&#45;&gt;20 -->
<g id="edge34" class="edge">
<title>22&#45;&gt;20</title>
<path fill="none" stroke="#c0c0c0" stroke-width="2" d="M487.8501,-143.8314C480.3283,-135.3694 471.2435,-125.1489 463.0196,-115.8971"/>
<polygon fill="#c0c0c0" stroke="#c0c0c0" stroke-width="2" points="465.627,-113.5621 456.3673,-108.4133 460.3951,-118.2127 465.627,-113.5621"/>
</g>
<!-- 23 -->
<g id="node24" class="node">
<title>23</title>
<path fill="none" stroke="#d89c56" stroke-width="2" d="M679,-180C679,-180 569,-180 569,-180 563,-180 557,-174 557,-168 557,-168 557,-156 557,-156 557,-150 563,-144 569,-144 569,-144 679,-144 679,-144 685,-144 691,-150 691,-156 691,-156 691,-168 691,-168 691,-174 685,-180 679,-180"/>
<text text-anchor="middle" x="624" y="-159.5" font-family="sans" font-size="10.00" fill="#000000">microbiome_bins_quant</text>
</g>
<!-- 23&#45;&gt;0 -->
<g id="edge5" class="edge">
<title>23&#45;&gt;0</title>
<path fill="none" stroke="#c0c0c0" stroke-width="2" d="M608.1366,-143.7226C589.0989,-123.008 555.1878,-89.8156 519,-72 446.0204,-36.0716 349.9998,-24.0024 298.1206,-19.981"/>
<polygon fill="#c0c0c0" stroke="#c0c0c0" stroke-width="2" points="298.2732,-16.483 288.0486,-19.2592 297.7729,-23.4651 298.2732,-16.483"/>
</g>
<!-- 24 -->
<g id="node25" class="node">
<title>24</title>
<path fill="none" stroke="#56d873" stroke-width="2" d="M635,-252C635,-252 581,-252 581,-252 575,-252 569,-246 569,-240 569,-240 569,-228 569,-228 569,-222 575,-216 581,-216 581,-216 635,-216 635,-216 641,-216 647,-222 647,-228 647,-228 647,-240 647,-240 647,-246 641,-252 635,-252"/>
<text text-anchor="middle" x="608" y="-231.5" font-family="sans" font-size="10.00" fill="#000000">run_rrap_rna</text>
</g>
<!-- 24&#45;&gt;23 -->
<g id="edge37" class="edge">
<title>24&#45;&gt;23</title>
<path fill="none" stroke="#c0c0c0" stroke-width="2" d="M612.0375,-215.8314C613.7487,-208.131 615.7835,-198.9743 617.6852,-190.4166"/>
<polygon fill="#c0c0c0" stroke="#c0c0c0" stroke-width="2" points="621.1554,-190.9344 619.9082,-180.4133 614.3221,-189.4159 621.1554,-190.9344"/>
</g>
<!-- 25 -->
<g id="node26" class="node">
<title>25</title>
<path fill="none" stroke="#d88556" stroke-width="2" d="M642.5,-324C642.5,-324 569.5,-324 569.5,-324 563.5,-324 557.5,-318 557.5,-312 557.5,-312 557.5,-300 557.5,-300 557.5,-294 563.5,-288 569.5,-288 569.5,-288 642.5,-288 642.5,-288 648.5,-288 654.5,-294 654.5,-300 654.5,-300 654.5,-312 654.5,-312 654.5,-318 648.5,-324 642.5,-324"/>
<text text-anchor="middle" x="606" y="-303.5" font-family="sans" font-size="10.00" fill="#000000">process_barrnap</text>
</g>
<!-- 25&#45;&gt;24 -->
<g id="edge39" class="edge">
<title>25&#45;&gt;24</title>
<path fill="none" stroke="#c0c0c0" stroke-width="2" d="M606.5047,-287.8314C606.7186,-280.131 606.9729,-270.9743 607.2106,-262.4166"/>
<polygon fill="#c0c0c0" stroke="#c0c0c0" stroke-width="2" points="610.7094,-262.5066 607.4885,-252.4133 603.7121,-262.3122 610.7094,-262.5066"/>
</g>
<!-- 26&#45;&gt;25 -->
<g id="edge40" class="edge">
<title>26&#45;&gt;25</title>
<path fill="none" stroke="#c0c0c0" stroke-width="2" d="M583.5703,-359.8314C586.8493,-351.9617 590.762,-342.5712 594.3945,-333.8533"/>
<polygon fill="#c0c0c0" stroke="#c0c0c0" stroke-width="2" points="597.7124,-334.9902 598.3278,-324.4133 591.2508,-332.2979 597.7124,-334.9902"/>
</g>
<!-- 27 -->
<g id="node28" class="node">
<title>27</title>
<path fill="none" stroke="#56a9d8" stroke-width="2" d="M735,-324C735,-324 685,-324 685,-324 679,-324 673,-318 673,-312 673,-312 673,-300 673,-300 673,-294 679,-288 685,-288 685,-288 735,-288 735,-288 741,-288 747,-294 747,-300 747,-300 747,-312 747,-312 747,-318 741,-324 735,-324"/>
<text text-anchor="middle" x="710" y="-303.5" font-family="sans" font-size="10.00" fill="#000000">create_map</text>
</g>
<!-- 27&#45;&gt;24 -->
<g id="edge38" class="edge">
<title>27&#45;&gt;24</title>
<path fill="none" stroke="#c0c0c0" stroke-width="2" d="M684.2611,-287.8314C671.4563,-278.7927 655.8091,-267.7476 642.0281,-258.0198"/>
<polygon fill="#c0c0c0" stroke="#c0c0c0" stroke-width="2" points="643.9188,-255.0703 633.7307,-252.1628 639.882,-260.7891 643.9188,-255.0703"/>
</g>
<!-- 30 -->
<g id="node31" class="node">
<title>30</title>
<path fill="none" stroke="#56d8a2" stroke-width="2" d="M742.5,-252C742.5,-252 677.5,-252 677.5,-252 671.5,-252 665.5,-246 665.5,-240 665.5,-240 665.5,-228 665.5,-228 665.5,-222 671.5,-216 677.5,-216 677.5,-216 742.5,-216 742.5,-216 748.5,-216 754.5,-222 754.5,-228 754.5,-228 754.5,-240 754.5,-240 754.5,-246 748.5,-252 742.5,-252"/>
<text text-anchor="middle" x="710" y="-231.5" font-family="sans" font-size="10.00" fill="#000000">run_rrap_mags</text>
</g>
<!-- 27&#45;&gt;30 -->
<g id="edge45" class="edge">
<title>27&#45;&gt;30</title>
<path fill="none" stroke="#c0c0c0" stroke-width="2" d="M710,-287.8314C710,-280.131 710,-270.9743 710,-262.4166"/>
<polygon fill="#c0c0c0" stroke="#c0c0c0" stroke-width="2" points="713.5001,-262.4132 710,-252.4133 706.5001,-262.4133 713.5001,-262.4132"/>
</g>
<!-- 28 -->
<g id="node29" class="node">
<title>28</title>
<path fill="none" stroke="#56d882" stroke-width="2" d="M665,-540C665,-540 559,-540 559,-540 553,-540 547,-534 547,-528 547,-528 547,-516 547,-516 547,-510 553,-504 559,-504 559,-504 665,-504 665,-504 671,-504 677,-510 677,-516 677,-516 677,-528 677,-528 677,-534 671,-540 665,-540"/>
<text text-anchor="middle" x="612" y="-519.5" font-family="sans" font-size="10.00" fill="#000000">all_samples_processed</text>
</g>
<!-- 28&#45;&gt;27 -->
<g id="edge42" class="edge">
<title>28&#45;&gt;27</title>
<path fill="none" stroke="#c0c0c0" stroke-width="2" d="M620.1869,-503.9555C637.3729,-466.0762 677.2962,-378.0818 697.6257,-333.274"/>
<polygon fill="#c0c0c0" stroke="#c0c0c0" stroke-width="2" points="700.8231,-334.6977 701.7675,-324.1451 694.4485,-331.8055 700.8231,-334.6977"/>
</g>
<!-- 29&#45;&gt;28 -->
<g id="edge43" class="edge">
<title>29&#45;&gt;28</title>
<path fill="none" stroke="#c0c0c0" stroke-width="2" d="M555.9257,-575.8314C564.9857,-567.1337 575.9809,-556.5783 585.8265,-547.1265"/>
<polygon fill="#c0c0c0" stroke="#c0c0c0" stroke-width="2" points="588.2904,-549.613 593.0804,-540.1628 583.4426,-544.5633 588.2904,-549.613"/>
</g>
<!-- 30&#45;&gt;23 -->
<g id="edge36" class="edge">
<title>30&#45;&gt;23</title>
<path fill="none" stroke="#c0c0c0" stroke-width="2" d="M688.2986,-215.8314C677.8079,-207.0485 665.0545,-196.3712 653.6806,-186.8489"/>
<polygon fill="#c0c0c0" stroke="#c0c0c0" stroke-width="2" points="655.6089,-183.8986 645.6945,-180.1628 651.1153,-189.2659 655.6089,-183.8986"/>
</g>
</g>
</svg>
