<?xml version="1.0" encoding="UTF-8" standalone="no"?>
<!DOCTYPE svg PUBLIC "-//W3C//DTD SVG 1.1//EN"
 "http://www.w3.org/Graphics/SVG/1.1/DTD/svg11.dtd">
<!-- Generated by graphviz version 2.47.0 (0)
 -->
<!-- Title: snakemake_dag Pages: 1 -->
<svg width="342pt" height="620pt"
 viewBox="0.00 0.00 341.50 620.00" xmlns="http://www.w3.org/2000/svg" xmlns:xlink="http://www.w3.org/1999/xlink">
<g id="graph0" class="graph" transform="scale(1 1) rotate(0) translate(4 616)">
<title>snakemake_dag</title>
<polygon fill="white" stroke="transparent" points="-4,4 -4,-616 337.5,-616 337.5,4 -4,4"/>
<!-- 0 -->
<g id="node1" class="node">
<title>0</title>
<path fill="none" stroke="#56d863" stroke-width="2" d="M129,-36C129,-36 99,-36 99,-36 93,-36 87,-30 87,-24 87,-24 87,-12 87,-12 87,-6 93,0 99,0 99,0 129,0 129,0 135,0 141,-6 141,-12 141,-12 141,-24 141,-24 141,-30 135,-36 129,-36"/>
<text text-anchor="middle" x="114" y="-15.5" font-family="sans" font-size="10.00">all</text>
</g>
<!-- 1 -->
<g id="node2" class="node">
<title>1</title>
<path fill="none" stroke="#5673d8" stroke-width="2" d="M74,-108C74,-108 12,-108 12,-108 6,-108 0,-102 0,-96 0,-96 0,-84 0,-84 0,-78 6,-72 12,-72 12,-72 74,-72 74,-72 80,-72 86,-78 86,-84 86,-84 86,-96 86,-96 86,-102 80,-108 74,-108"/>
<text text-anchor="middle" x="43" y="-87.5" font-family="sans" font-size="10.00">initial_multiqc</text>
</g>
<!-- 1&#45;&gt;0 -->
<g id="edge2" class="edge">
<title>1&#45;&gt;0</title>
<path fill="none" stroke="grey" stroke-width="2" d="M60.55,-71.7C69.23,-63.14 79.86,-52.66 89.35,-43.3"/>
<polygon fill="grey" stroke="grey" stroke-width="2" points="91.99,-45.62 96.65,-36.1 87.07,-40.63 91.99,-45.62"/>
</g>
<!-- 2 -->
<g id="node3" class="node">
<title>2</title>
<path fill="none" stroke="#d8c356" stroke-width="2" d="M71,-180C71,-180 15,-180 15,-180 9,-180 3,-174 3,-168 3,-168 3,-156 3,-156 3,-150 9,-144 15,-144 15,-144 71,-144 71,-144 77,-144 83,-150 83,-156 83,-156 83,-168 83,-168 83,-174 77,-180 71,-180"/>
<text text-anchor="middle" x="43" y="-159.5" font-family="sans" font-size="10.00">initial_fastqc</text>
</g>
<!-- 2&#45;&gt;1 -->
<g id="edge4" class="edge">
<title>2&#45;&gt;1</title>
<path fill="none" stroke="grey" stroke-width="2" d="M43,-143.7C43,-135.98 43,-126.71 43,-118.11"/>
<polygon fill="grey" stroke="grey" stroke-width="2" points="46.5,-118.1 43,-108.1 39.5,-118.1 46.5,-118.1"/>
</g>
<!-- 3 -->
<g id="node4" class="node">
<title>3</title>
<path fill="none" stroke="#568ad8" stroke-width="2" d="M160.5,-468C160.5,-468 83.5,-468 83.5,-468 77.5,-468 71.5,-462 71.5,-456 71.5,-456 71.5,-444 71.5,-444 71.5,-438 77.5,-432 83.5,-432 83.5,-432 160.5,-432 160.5,-432 166.5,-432 172.5,-438 172.5,-444 172.5,-444 172.5,-456 172.5,-456 172.5,-462 166.5,-468 160.5,-468"/>
<text text-anchor="middle" x="122" y="-447.5" font-family="sans" font-size="10.00">trimmed_multiqc</text>
</g>
<!-- 3&#45;&gt;0 -->
<g id="edge3" class="edge">
<title>3&#45;&gt;0</title>
<path fill="none" stroke="grey" stroke-width="2" d="M120.42,-431.97C118.09,-405.33 114,-352.19 114,-307 114,-307 114,-307 114,-161 114,-121 114,-74.65 114,-46.08"/>
<polygon fill="grey" stroke="grey" stroke-width="2" points="117.5,-46.05 114,-36.05 110.5,-46.05 117.5,-46.05"/>
</g>
<!-- 8 -->
<g id="node9" class="node">
<title>8</title>
<path fill="none" stroke="#ced856" stroke-width="2" d="M212.5,-396C212.5,-396 179.5,-396 179.5,-396 173.5,-396 167.5,-390 167.5,-384 167.5,-384 167.5,-372 167.5,-372 167.5,-366 173.5,-360 179.5,-360 179.5,-360 212.5,-360 212.5,-360 218.5,-360 224.5,-366 224.5,-372 224.5,-372 224.5,-384 224.5,-384 224.5,-390 218.5,-396 212.5,-396"/>
<text text-anchor="middle" x="196" y="-375.5" font-family="sans" font-size="10.00">megahit</text>
</g>
<!-- 3&#45;&gt;8 -->
<g id="edge12" class="edge">
<title>3&#45;&gt;8</title>
<path fill="none" stroke="grey" stroke-width="2" d="M140.29,-431.7C149.43,-423.05 160.64,-412.45 170.6,-403.03"/>
<polygon fill="grey" stroke="grey" stroke-width="2" points="173.06,-405.52 177.92,-396.1 168.25,-400.43 173.06,-405.52"/>
</g>
<!-- 4 -->
<g id="node5" class="node">
<title>4</title>
<path fill="none" stroke="#d8ac56" stroke-width="2" d="M159,-540C159,-540 89,-540 89,-540 83,-540 77,-534 77,-528 77,-528 77,-516 77,-516 77,-510 83,-504 89,-504 89,-504 159,-504 159,-504 165,-504 171,-510 171,-516 171,-516 171,-528 171,-528 171,-534 165,-540 159,-540"/>
<text text-anchor="middle" x="124" y="-519.5" font-family="sans" font-size="10.00">trimmed_fastqc</text>
</g>
<!-- 4&#45;&gt;3 -->
<g id="edge5" class="edge">
<title>4&#45;&gt;3</title>
<path fill="none" stroke="grey" stroke-width="2" d="M123.51,-503.7C123.29,-495.98 123.02,-486.71 122.77,-478.11"/>
<polygon fill="grey" stroke="grey" stroke-width="2" points="126.27,-478 122.49,-468.1 119.28,-478.2 126.27,-478"/>
</g>
<!-- 5 -->
<g id="node6" class="node">
<title>5</title>
<path fill="none" stroke="#56d89a" stroke-width="2" d="M229,-612C229,-612 173,-612 173,-612 167,-612 161,-606 161,-600 161,-600 161,-588 161,-588 161,-582 167,-576 173,-576 173,-576 229,-576 229,-576 235,-576 241,-582 241,-588 241,-588 241,-600 241,-600 241,-606 235,-612 229,-612"/>
<text text-anchor="middle" x="201" y="-591.5" font-family="sans" font-size="10.00">trimmomatic</text>
</g>
<!-- 5&#45;&gt;4 -->
<g id="edge6" class="edge">
<title>5&#45;&gt;4</title>
<path fill="none" stroke="grey" stroke-width="2" d="M181.97,-575.7C172.46,-567.05 160.79,-556.45 150.43,-547.03"/>
<polygon fill="grey" stroke="grey" stroke-width="2" points="152.57,-544.24 142.81,-540.1 147.86,-549.42 152.57,-544.24"/>
</g>
<!-- 5&#45;&gt;8 -->
<g id="edge11" class="edge">
<title>5&#45;&gt;8</title>
<path fill="none" stroke="grey" stroke-width="2" d="M200.6,-575.85C199.73,-538.83 197.69,-451.18 196.64,-406.39"/>
<polygon fill="grey" stroke="grey" stroke-width="2" points="200.14,-406.15 196.4,-396.23 193.14,-406.31 200.14,-406.15"/>
</g>
<!-- 10 -->
<g id="node11" class="node">
<title>10</title>
<path fill="none" stroke="#56d8d0" stroke-width="2" d="M313,-252C313,-252 269,-252 269,-252 263,-252 257,-246 257,-240 257,-240 257,-228 257,-228 257,-222 263,-216 269,-216 269,-216 313,-216 313,-216 319,-216 325,-222 325,-228 325,-228 325,-240 325,-240 325,-246 319,-252 313,-252"/>
<text text-anchor="middle" x="291" y="-231.5" font-family="sans" font-size="10.00">mapReads</text>
</g>
<!-- 5&#45;&gt;10 -->
<g id="edge16" class="edge">
<title>5&#45;&gt;10</title>
<path fill="none" stroke="grey" stroke-width="2" d="M216.84,-575.65C238.31,-550.27 274,-500.62 274,-451 274,-451 274,-451 274,-377 274,-336.93 280.76,-290.95 285.75,-262.43"/>
<polygon fill="grey" stroke="grey" stroke-width="2" points="289.23,-262.87 287.56,-252.41 282.34,-261.63 289.23,-262.87"/>
</g>
<!-- 6 -->
<g id="node7" class="node">
<title>6</title>
<path fill="none" stroke="#97d856" stroke-width="2" d="M219,-108C219,-108 167,-108 167,-108 161,-108 155,-102 155,-96 155,-96 155,-84 155,-84 155,-78 161,-72 167,-72 167,-72 219,-72 219,-72 225,-72 231,-78 231,-84 231,-84 231,-96 231,-96 231,-102 225,-108 219,-108"/>
<text text-anchor="middle" x="193" y="-87.5" font-family="sans" font-size="10.00">euk_dastool</text>
</g>
<!-- 6&#45;&gt;0 -->
<g id="edge1" class="edge">
<title>6&#45;&gt;0</title>
<path fill="none" stroke="grey" stroke-width="2" d="M173.47,-71.7C163.62,-62.97 151.51,-52.24 140.8,-42.75"/>
<polygon fill="grey" stroke="grey" stroke-width="2" points="143.11,-40.12 133.3,-36.1 138.47,-45.36 143.11,-40.12"/>
</g>
<!-- 7 -->
<g id="node8" class="node">
<title>7</title>
<path fill="none" stroke="#d87556" stroke-width="2" d="M211,-324C211,-324 181,-324 181,-324 175,-324 169,-318 169,-312 169,-312 169,-300 169,-300 169,-294 175,-288 181,-288 181,-288 211,-288 211,-288 217,-288 223,-294 223,-300 223,-300 223,-312 223,-312 223,-318 217,-324 211,-324"/>
<text text-anchor="middle" x="196" y="-303.5" font-family="sans" font-size="10.00">eukrep</text>
</g>
<!-- 7&#45;&gt;6 -->
<g id="edge7" class="edge">
<title>7&#45;&gt;6</title>
<path fill="none" stroke="grey" stroke-width="2" d="M189.45,-288C178.96,-258.53 160.61,-196.15 171,-144 172.79,-135.01 176.14,-125.64 179.69,-117.32"/>
<polygon fill="grey" stroke="grey" stroke-width="2" points="182.92,-118.67 183.87,-108.12 176.54,-115.77 182.92,-118.67"/>
</g>
<!-- 9 -->
<g id="node10" class="node">
<title>9</title>
<path fill="none" stroke="#d85656" stroke-width="2" d="M222,-180C222,-180 192,-180 192,-180 186,-180 180,-174 180,-168 180,-168 180,-156 180,-156 180,-150 186,-144 192,-144 192,-144 222,-144 222,-144 228,-144 234,-150 234,-156 234,-156 234,-168 234,-168 234,-174 228,-180 222,-180"/>
<text text-anchor="middle" x="207" y="-159.5" font-family="sans" font-size="10.00">concoct</text>
</g>
<!-- 7&#45;&gt;9 -->
<g id="edge13" class="edge">
<title>7&#45;&gt;9</title>
<path fill="none" stroke="grey" stroke-width="2" d="M197.33,-287.87C199.2,-263.67 202.65,-219.21 204.88,-190.39"/>
<polygon fill="grey" stroke="grey" stroke-width="2" points="208.39,-190.43 205.67,-180.19 201.41,-189.89 208.39,-190.43"/>
</g>
<!-- 7&#45;&gt;10 -->
<g id="edge15" class="edge">
<title>7&#45;&gt;10</title>
<path fill="none" stroke="grey" stroke-width="2" d="M219.48,-287.7C231.56,-278.8 246.45,-267.82 259.52,-258.2"/>
<polygon fill="grey" stroke="grey" stroke-width="2" points="261.81,-260.85 267.79,-252.1 257.66,-255.22 261.81,-260.85"/>
</g>
<!-- 11 -->
<g id="node12" class="node">
<title>11</title>
<path fill="none" stroke="#56a9d8" stroke-width="2" d="M321.5,-180C321.5,-180 264.5,-180 264.5,-180 258.5,-180 252.5,-174 252.5,-168 252.5,-168 252.5,-156 252.5,-156 252.5,-150 258.5,-144 264.5,-144 264.5,-144 321.5,-144 321.5,-144 327.5,-144 333.5,-150 333.5,-156 333.5,-156 333.5,-168 333.5,-168 333.5,-174 327.5,-180 321.5,-180"/>
<text text-anchor="middle" x="293" y="-159.5" font-family="sans" font-size="10.00">euk_metabat</text>
</g>
<!-- 7&#45;&gt;11 -->
<g id="edge17" class="edge">
<title>7&#45;&gt;11</title>
<path fill="none" stroke="grey" stroke-width="2" d="M204.93,-287.72C214.67,-269.38 231.14,-239.8 248,-216 254.84,-206.35 263.04,-196.32 270.55,-187.62"/>
<polygon fill="grey" stroke="grey" stroke-width="2" points="273.23,-189.87 277.2,-180.04 267.97,-185.25 273.23,-189.87"/>
</g>
<!-- 8&#45;&gt;7 -->
<g id="edge10" class="edge">
<title>8&#45;&gt;7</title>
<path fill="none" stroke="grey" stroke-width="2" d="M196,-359.7C196,-351.98 196,-342.71 196,-334.11"/>
<polygon fill="grey" stroke="grey" stroke-width="2" points="199.5,-334.1 196,-324.1 192.5,-334.1 199.5,-334.1"/>
</g>
<!-- 9&#45;&gt;6 -->
<g id="edge9" class="edge">
<title>9&#45;&gt;6</title>
<path fill="none" stroke="grey" stroke-width="2" d="M203.54,-143.7C202,-135.98 200.14,-126.71 198.42,-118.11"/>
<polygon fill="grey" stroke="grey" stroke-width="2" points="201.81,-117.22 196.42,-108.1 194.95,-118.6 201.81,-117.22"/>
</g>
<!-- 10&#45;&gt;9 -->
<g id="edge14" class="edge">
<title>10&#45;&gt;9</title>
<path fill="none" stroke="grey" stroke-width="2" d="M270.24,-215.7C259.76,-206.97 246.89,-196.24 235.5,-186.75"/>
<polygon fill="grey" stroke="grey" stroke-width="2" points="237.45,-183.82 227.53,-180.1 232.97,-189.19 237.45,-183.82"/>
</g>
<!-- 10&#45;&gt;11 -->
<g id="edge18" class="edge">
<title>10&#45;&gt;11</title>
<path fill="none" stroke="grey" stroke-width="2" d="M291.49,-215.7C291.71,-207.98 291.98,-198.71 292.23,-190.11"/>
<polygon fill="grey" stroke="grey" stroke-width="2" points="295.72,-190.2 292.51,-180.1 288.73,-190 295.72,-190.2"/>
</g>
<!-- 11&#45;&gt;6 -->
<g id="edge8" class="edge">
<title>11&#45;&gt;6</title>
<path fill="none" stroke="grey" stroke-width="2" d="M268.54,-143.88C255.7,-134.89 239.8,-123.76 225.91,-114.03"/>
<polygon fill="grey" stroke="grey" stroke-width="2" points="227.76,-111.06 217.56,-108.19 223.74,-116.79 227.76,-111.06"/>
</g>
</g>
</svg>
